<?xml version="1.0" encoding="utf-8"?>
<!-- Generator: Adobe Illustrator 15.0.2, SVG Export Plug-In . SVG Version: 6.00 Build 0)  -->
<!DOCTYPE svg PUBLIC "-//W3C//DTD SVG 1.1//EN" "http://www.w3.org/Graphics/SVG/1.1/DTD/svg11.dtd">
<svg version="1.1" id="Layer_1" xmlns="http://www.w3.org/2000/svg" xmlns:xlink="http://www.w3.org/1999/xlink" x="0px" y="0px"
	 width="699px" height="499px" viewBox="0 0 699 499" enable-background="new 0 0 699 499" xml:space="preserve">
<g transform="translate(0.000000,499.000000) scale(0.100000,-0.100000)" opacity="0.5">
	<path fill="#DCDDDE" d="M4815,4977.998c-15.996-5.996-50.996-30.996-77.002-55.996c-42.998-41.001-52.002-46.001-105-49.004
		c-75.996-5-102.998-10.996-102.998-22.998c0-6.001,35.996-10,84.004-10c81.992,0,85-1.001,126.992-36.001
		C4797.998,4756,4832.001,4740,4875,4740c47.998,0,65,32.002,40,78.999c-9.004,18.003-22.998,35-30.996,38.003
		C4872.998,4861,4875.996,4870,4900,4896c37.002,41.997,37.002,46.997,4.004,72.998C4875,4992.001,4860,4993.999,4815,4977.998z"/>
	<path fill="#DCDDDE" d="M5172.998,4950c-10.996-5-33.994-25-50-43.999c-17.002-22.002-37.002-36.001-50-36.001
		c-13.994,0-22.998-6.001-22.998-15s9.004-15,20.996-15c12.002,0,40-21.001,68.008-48.999
		C5187.998,4737.998,5230.996,4720,5255,4740c20,16.001,19.004,60-0.996,88.999c-15,21.001-15,23.999,10,50
		c30.996,32.002,31.992,42.002,7.998,63.999C5252.001,4961,5207.998,4963.999,5172.998,4950z"/>
	<path fill="#DCDDDE" d="M4370,4938.999c-32.998-12.998-67.002-45-95-90c-20-30-32.998-37.998-89.004-52.998
		c-70.996-20-92.998-43.003-27.998-32.002c105,18.999,112.002,18.999,135-1.997c31.006-29.004,106.006-62.002,144.004-62.002
		c65,0,82.002,52.998,32.998,102.002l-30,30l20,27.998c25.996,36.001,25,55-2.002,73.999
		C4432.998,4952.001,4407.001,4952.998,4370,4938.999z"/>
	<path fill="#DCDDDE" d="M937.998,4905C483.999,4833.999,230,4545,226.001,4095c-1.001-98.999,2.998-132.998,22.998-195
		C283.999,3786,325,3717.001,400,3646C517.002,3536,666.001,3485,843.999,3492.001c88.999,3.999,108.003,7.998,163.003,35.996
		c117.998,61.001,207.998,181.001,220,295c16.997,169.004-87.002,316.001-236.001,334.004
		C872.998,4171,756.001,4048.999,802.002,3961c18.999-36.001,70-63.003,101.997-55c33.999,7.998,61.001,56.997,47.002,82.998
		c-12.002,21.001-38.003,33.999-52.002,25c-16.997-10-8.999,22.002,11.001,43.999c36.001,38.003,123.999,21.001,181.001-36.997
		c33.999-33.999,77.998-125,66.997-137.002c-2.998-2.998-18.999,8.003-35,25c-48.999,48.999-131.997,53.003-140.996,7.002
		c-3.003-12.002,3.999-16.001,25.996-16.001c35,0,55-20,50-52.002c-1.997-17.998-10.996-23.999-37.998-27.998
		c-35-5-41.001-12.998-55-82.002C957.998,3700,908.999,3647.001,861.001,3625C810,3602.998,785,3610,793.999,3646
		C811.001,3711,760,3771,705,3750c-27.998-11.001-32.998-37.002-10-46.001C713.999,3696,713.999,3676,693.999,3656
		C683.999,3645,660,3640,622.002,3640c-91.001,0-169.004,45-225,130c-25,36.001-21.001,42.002,20.996,36.001
		C443.999,3801,465,3805,490,3817.998c32.998,18.003,61.001,64.004,47.998,77.002c-2.998,3.999-30,7.002-57.998,8.999
		c-45,2.002-57.002,7.002-80,33.003C362.002,3978.999,345,4060,346.001,4195c1.001,92.998,5,122.998,27.998,190
		c37.002,107.002,57.002,131.001,70,80c7.002-27.002,56.001-57.998,80-48.999c22.002,7.998,26.001,26.997,13.999,72.998
		c-15,60,11.001,122.002,79.004,188.003c65.996,65,235.996,152.998,308.999,160l48.999,5l-30-20
		C842.002,4756,787.998,4602.998,845,4540c25-27.002,86.001-42.998,118.999-30C995,4521,997.002,4538.999,970,4562.998
		c-42.998,37.002-13.999,104.004,62.002,141.001c152.998,73.999,370,55,617.998-56.001C1732.002,4611,1767.002,4570,1717.002,4570
		c-25,0-57.002-27.998-57.002-47.998c0-8.003-20-12.002-57.002-12.002c-166.997-2.002-280-120-232.998-245
		c12.998-33.999,27.002-25,35,25c13.999,83.999,72.998,122.998,183.999,122.998c65-0.996,82.002-5,158.999-42.998
		c161.001-80,320-268.999,391.001-466.001c31.001-86.001,62.002-233.999,60-293.999c-1.001-28.999-3.999-22.002-18.999,35
		c-22.002,83.999-53.999,167.998-82.002,212.998c-16.997,28.003-25.996,33.003-48.999,30c-23.999-3.999-30,1.001-50,45
		c-25,53.003-81.001,109.004-133.999,134.004c-42.002,20-65,11.997-65-25c0-26.001-3.999-29.004-55-39.004
		c-83.999-17.998-122.998-40.996-150-86.997c-27.002-47.002-42.998-106.001-27.998-106.001c5,0,23.999,17.998,41.997,40
		c110,137.002,327.002,23.999,431.001-227.002c52.998-126.997,71.001-233.999,71.001-422.998c1.001-332.002-70-633.999-225-955
		c-128.999-265.996-245-430.996-461.001-654.004c-150-153.994-392.002-376.992-525-483.994c-117.998-94.004-368.999-240-652.002-380
		C72.998,640.996,1.001,600,0,587.998c0-12.998,26.001-5,132.002,42.998C467.002,782.002,797.002,970,940,1090
		c285,240.996,612.002,567.002,805,804.004c295,361.992,613.999,705.996,845,908.994C2827.002,3012.001,2997.002,3126,3295,3275
		c362.002,182.002,717.002,295,1090,347.002c139.004,18.999,505.996,15.996,645-6.001C5705,3511,6222.998,3140,6492.998,2570
		c65-137.002,129.003-332.002,162.998-500c38.008-185.996,40-409.004,5-580c-65-320-207.998-620.996-380-802.002
		C6165,565.996,6077.001,532.998,5962.998,570c-22.998,7.998-45,10.996-48.994,7.002c-13.008-12.002,27.998-59.004,65.996-76.006
		l39.004-17.998L5915,420c-200-120-387.998-172.998-620-172.998C4829.003,247.002,4432.001,480,4250.996,860
		C4192.001,984.004,4170,1080,4170,1217.002c0,197.002,45,352.002,150,510c102.002,155,242.002,263.994,394.004,307.998
		C4790,2057.002,4955,2057.002,5040,2035c137.002-35,249.004-117.002,272.002-199.004c17.002-61.992,30.996-72.998,70.996-57.998
		c27.998,11.006,34.004,10,45-5c15-20.996,16.006-70,1.006-112.002c-9.004-25-23.008-37.998-55-51.992
		c-24.004-10-44.004-25-44.004-32.002c0-7.998-17.998-26.006-40-40c-47.002-32.002-57.998-72.002-37.002-135
		c14.004-39.004,14.004-42.002-3.994-42.002c-30,0-66.006,20.996-80,45.996c-10,20-10,27.002,3.994,42.002
		c21.006,22.998,21.006,41.006,2.002,66.006c-22.002,28.994-19.004,33.994,25,45.996c22.002,5.996,40,14.004,40,17.998
		c0,17.998-27.002,32.002-62.002,32.002c-83.994,0-132.002-54.004-132.002-150c-0.996-70,27.002-125,83.008-165
		c58.994-40.996,162.998-47.998,238.994-15c66.006,29.004,122.998,90.996,152.002,165.996
		c19.004,51.006,20.996,73.008,17.998,166.006c-3.994,98.994-7.002,112.998-40.996,182.002
		c-134.004,270-524.004,385.996-857.002,253.994c-237.002-93.994-402.002-292.998-477.002-577.002
		C4140,1387.002,4137.001,1355,4137.001,1210c-1.006-150.996,2.002-172.002,25.996-252.998C4250,675,4445,465,4764.003,310
		c181.992-87.998,295-114.004,495.996-114.004c112.998,0,169.004,5,255,23.008c325.996,68.994,572.998,197.998,790.996,415.996
		c119.004,119.004,219.003,257.002,278.007,385.996c58.994,130,143.994,406.006,166.992,545
		c17.002,107.002,20,151.006,14.004,254.004c-10.996,205-65,447.998-137.998,627.002C6539.999,2660,6345,2935,6144.003,3130
		C5730,3530,5265,3697.001,4625,3677.001c-727.998-24.004-1412.002-300-2040-826.001c-137.998-115-437.998-418.999-572.998-581.001
		c-151.001-180.996-191.001-227.002-192.002-217.998c0,3.994,25,40,55,80c78.999,103.994,213.999,380.996,273.999,562.998
		c102.002,307.998,126.001,477.002,118.003,810c-7.002,290-27.002,425-94.004,630C2115,4315,2033.999,4447.001,1901.001,4581
		c-140,138.999-268.003,216.001-470,283.999C1261.001,4921,1117.998,4932.998,937.998,4905z"/>
	<path fill="#DCDDDE" d="M3031.001,4895c-95-42.002-206.001-211.001-275-417.998c-76.001-230-173.003-759.004-132.002-716.001
		c2.002,1.997,16.001,76.001,31.001,163.999c71.001,427.998,163.999,697.002,286.001,822.998
		c86.001,90,137.998,111.001,187.998,76.001c18.999-13.999,25-13.999,32.002-2.998c13.999,22.998,10,37.998-16.001,63.999
		C3117.002,4912.998,3081.001,4916,3031.001,4895z"/>
	<path fill="#DCDDDE" d="M5542.998,4892.998c-12.998-1.997-37.002-17.998-53.994-35c-21.006-21.997-41.006-30.996-65-31.997
		c-42.002-1.001-45-18.003-5-28.999c17.998-4.004,36.992-19.004,45-35c30-57.002,95.996-99.004,128.994-81.001
		c22.002,12.998,22.002,56.997,1.006,87.998c-15,21.001-15,23.003,3.994,36.001C5654.003,4845,5615,4906,5542.998,4892.998z"/>
	<path fill="#DCDDDE" d="M1967.998,4833.999c-2.998-2.998,35-46.997,86.001-96.997c178.999-180,287.002-388.003,348.003-671.001
		c18.999-88.003,21.997-132.002,21.997-341.001c1.001-192.998-2.998-257.998-16.997-328.999c-18.003-88.999-18.003-107.002,0-83.999
		c33.999,45,68.999,191.997,107.998,461.997C2548.999,4010,2547.998,4080,2510,4080c-15,0-17.998,13.999-22.002,132.998
		c-5.996,156.001-15,181.001-71.997,200c-32.002,11.001-46.001,23.003-65,58.003c-96.001,177.998-243.003,327.998-357.002,362.998
		C1982.998,4837.001,1971.001,4837.998,1967.998,4833.999z"/>
	<path fill="#DCDDDE" d="M3944.003,4821c-34.004-21.001-65-67.002-83.008-122.002c-10-31.001-18.994-38.999-82.998-65
		c-38.994-16.001-72.998-35-75.996-41.001c-6.006-18.999,15-15.996,90.996,14.004c67.002,25.996,70,26.997,116.006,10.996
		c75-25.996,106.992-30,150.996-17.998c74.004,20,77.002,85,4.004,112.002C4035,4722.001,4030,4727.998,4035,4745
		c15.996,47.998,17.002,66.001,5,80C4022.998,4846,3980.996,4843.999,3944.003,4821z"/>
	<path fill="#DCDDDE" d="M5835.996,4768.999c-36.992-20-41.992-20-100-5c-90.996,23.003-91.992,5-1.992-28.999
		c32.998-12.002,52.998-27.002,65-47.998c21.992-41.001,60-86.001,81.992-98.003c42.002-21.997,78.008,35,50,81.001
		c-6.992,10-1.992,18.999,20,32.002c33.008,20,37.002,46.997,11.006,70.996C5937.001,4796,5882.998,4793.999,5835.996,4768.999z"/>
	<path fill="#DCDDDE" d="M6062.998,4685c-47.002-20-45-56.001,6.006-106.001c55.996-56.997,110.996-46.997,82.998,15
		c-9.004,20-7.002,25,13.994,35c34.004,15,30,40-10.996,57.002C6112.998,4702.998,6104.003,4702.998,6062.998,4685z"/>
	<path fill="#DCDDDE" d="M3475,4597.001c-42.002-42.002-65-94.004-65-150c0-15-7.998-34.004-17.002-41.001
		c-10-8.003-41.997-33.003-70-56.001c-28.999-22.002-52.998-47.002-52.998-55c0-22.998,10-17.998,80,36.001
		c55,41.997,70,48.999,95,43.999c17.002-3.999,64.004-7.998,105-11.001c109.004-6.997,172.002,28.999,155.996,88.999
		c-6.992,30-50.996,57.002-91.992,57.002c-21.006,0-25,3.999-19.004,17.998c27.002,71.001,12.002,112.002-42.002,112.002
		C3524.004,4640,3509.004,4632.001,3475,4597.001z"/>
	<path fill="#DCDDDE" d="M6292.998,4533.999c-7.002-18.999-10.996-15,114.004-97.998c57.002-37.002,137.001-98.003,177.998-137.002
		c40.996-37.998,79.004-68.999,85-68.999c49.004,0-105.996,158.999-250.996,255C6334.003,4542.998,6300.996,4555,6292.998,4533.999z
		"/>
	<path fill="#DCDDDE" d="M3077.002,4317.001c-33.003-33.003-57.002-93.003-57.002-138.003c0-12.998,8.999-42.998,18.999-65
		c23.003-51.001,67.002-68.999,146.001-61.001c92.002,9.004,155,51.001,155,103.003c0,42.998-35,66.997-96.001,66.997H3200V4275
		c0,58.999-12.002,75-57.002,75C3120,4350,3102.002,4341,3077.002,4317.001z"/>
	<path fill="#DCDDDE" d="M4590.996,4200c-97.998-26.001-205.996-80-262.998-128.999c-55-48.999-67.998-51.001-67.998-12.002
		c0,80-52.998,118.999-135.996,101.001c-89.004-20-164.004-70-343.008-227.002C3704.003,3865,3675,3856,3660,3893.999
		c-17.998,47.002-97.998,43.003-182.002-10c-38.999-25-656.997-591.997-840.996-772.998
		C2463.999,2942.001,2326.001,2790,2343.999,2790c8.999,0,78.999,58.999,153.999,132.002
		c425,406.997,828.003,680.996,1241.006,842.998c112.998,43.999,325,98.999,435.996,113.999
		c304.004,41.001,822.002,53.999,1057.002,26.001c390-45,667.002-161.001,915.996-382.998
		c46.006-41.001,86.006-71.001,89.004-68.003c10,10-79.004,117.002-145,173.003c-115,96.997-267.002,190.996-369.004,226.997
		c-22.998,8.999-37.002,18.999-33.994,27.002c11.992,42.998,10,56.997-9.004,81.001c-27.002,35-102.002,57.998-189.004,58.999
		c-35.996,0-87.998,3.999-115.996,6.997l-50,7.002l2.998,41.001c2.002,28.999-2.998,47.998-17.002,65
		c-17.998,22.998-25,23.999-122.998,22.998C5100,4162.998,5070,4157.998,4985,4130c-55-17.998-115.996-32.998-135-33.999
		c-35-1.001-35-1.001-32.002,38.999c2.998,31.001-2.002,45-17.998,60C4770,4222.001,4682.001,4225,4590.996,4200z"/>
	<path fill="#DCDDDE" d="M2936.001,4008.999C2817.002,3876,2691.001,3686,2585,3475c-102.002-201.001-195-440-156.001-400
		c5,6.001,30,58.999,56.001,118.999C2608.999,3486,2783.999,3771,2947.002,3950c53.999,60,75.996,93.999,65.996,103.999
		C2997.998,4067.998,2978.999,4057.001,2936.001,4008.999z"/>
	<path fill="#DCDDDE" d="M1413.999,3751c-51.997-32.002-47.998-38.003,23.999-43.003c90-5,154.004-45,219.004-135
		c25-35,43.999-65,41.997-66.997c-1.997-1.001-20-7.002-38.999-12.002c-52.002-13.999-52.002-46.001-1.001-97.998
		c53.003-53.999,88.003-133.999,102.002-232.002c11.997-83.999,3.999-260-12.002-270c-5-2.998-8.999-3.999-8.999-1.997
		c-2.998,106.997-47.002,280-81.001,316.997c-20,21.001-31.997,23.003-70,7.002c-11.997-5-17.998,0-21.997,22.998
		c-11.001,53.003-84.004,83.999-154.004,65c-26.997-6.997-35.996-28.999-22.998-55c8.999-16.001,7.002-18.999-12.998-18.999
		c-45,0-85-21.001-95-47.998c-11.001-33.003,1.997-88.003,23.999-96.001c26.001-10,36.997,3.999,18.999,23.999
		c-22.002,23.999-11.001,57.998,21.001,66.001c61.997,16.001,172.998-63.999,226.001-163.003
		C1612.998,2938.999,1630,2858.999,1630,2745c0-402.998-208.999-822.998-623.999-1252.002c-143.003-148.994-298.999-272.998-550-440
		C291.001,942.998,30,790,7.998,790C2.998,790,0,779.004,0,765s2.998-25,7.002-25C20,740,267.998,874.004,380,942.002
		C937.998,1280,1392.998,1747.998,1637.998,2235.996C1742.998,2445,1828.999,2782.998,1845,3055
		c12.998,202.002-30,416.001-107.998,537.998C1647.998,3732.001,1501.001,3803.999,1413.999,3751z"/>
	<path fill="#DCDDDE" d="M4280.996,3478.999c-190-21.001-541.992-111.997-597.998-153.999c-17.002-13.999-17.002-13.999,6.006-15
		c12.998,0,65,12.998,115,28.999c123.994,40,300,77.002,425.996,92.002c219.004,25,627.998-7.002,805-62.002
		c195-60,362.002-181.001,457.998-331.997c20-31.001,51.006-66.001,67.998-76.001c26.006-16.001,36.006-33.999,55-91.001
		c25-80,55-120,90-120c39.004,0,57.002,48.999,52.002,141.001c-2.002,43.999,0,78.999,5,78.999c11.006,0,76.006-105,107.002-173.999
		c40-88.999,54.004-158.003,54.004-276.001c0.996-112.998,5-125.996,41.992-140c27.002-10.996,32.002-47.002,13.008-115
		c-12.002-42.998-67.002-105-94.004-105c-29.004,0-10-25,22.002-27.998c42.002-4.004,93.994,42.002,122.002,107.998
		c17.998,42.002,33.994,144.004,41.992,265c2.002,42.998,29.004-72.998,40-174.004c20-197.998,28.008-236.992,55-261.992
		c29.004-27.002,31.006-68.008,8.008-172.002c-24.004-107.998-83.008-224.004-143.008-280
		c-27.998-26.006-56.992-47.002-63.994-47.002c-7.998,0-20-7.002-27.002-15c-10.996-12.998-7.998-15,12.998-15
		c65,0,147.998,67.998,202.002,164.004c164.004,297.998,110,730-142.002,1109.995c-80.996,123.003-263.994,310-377.002,386.001
		c-185.996,123.999-443.994,212.002-781.992,265C4735,3483.999,4397.998,3492.001,4280.996,3478.999z"/>
	<path fill="#DCDDDE" d="M4120,3263.999c-589.004-71.001-1122.998-336.997-1707.998-848.003
		c-171.001-150-416.001-390-403.003-393.994c18.003-6.006,47.002,17.002,193.999,155.996c361.001,343.003,640,536.001,900,624.004
		c76.001,25.996,108.003,30.996,187.002,31.997c92.002,1.001,95,2.002,97.998,23.999c5,32.002-22.998,60-71.997,73.003
		c-37.002,10-38.999,11.997-23.003,23.999c10,7.002,75,32.002,145,56.001c125,42.998,129.004,42.998,267.002,43.999
		c150.996,0,194.004-8.999,245-52.002c20-15.996,30-33.999,30-51.997c0-27.002,25.996-61.001,47.002-61.001
		c5.996,0,22.998,10,37.998,22.002c25.996,20,27.002,25,20.996,75c-7.998,67.998,6.006,70,66.006,6.997c42.002-45,43.994-45,90-40
		c50,7.002,105-10,142.002-41.997c27.998-25,55.996-91.001,55.996-134.004c0-42.998,14.004-56.997,29.004-28.999
		c27.998,51.001-1.006,148.999-65,220C4320.996,3061,4160,3122.001,3960.996,3137.001c-73.994,5-88.994,7.998-70,15
		C3925,3165,4280,3163.999,4362.998,3151c145-23.999,237.998-77.002,287.998-166.001c17.002-30,39.004-57.002,50-60
		c28.008-8.999,55,2.002,67.002,28.999c15,33.999-13.994,91.001-80.996,153.999L4630.996,3160h37.002
		c24.004,0,57.002-12.998,101.006-38.999c95.996-57.002,142.998-102.002,178.994-168.999c17.998-33.003,39.004-65,47.998-73.003
		c14.004-11.001,19.004-10,35,10c11.006,13.003,19.004,33.999,19.004,47.002c0,33.999,17.002,30,57.002-12.002
		c50.996-55,75-110,80.996-186.001c4.004-55.996,1.006-72.998-17.002-102.998c-27.998-47.998-26.992-65,4.004-65
		c15.996,0,34.004,12.002,52.002,35c15,18.999,32.002,35,37.002,35c15.996,0-2.002-184.004-24.004-244.004
		c-25.996-67.998-65.996-101.992-140-115.996c-29.004-5-55-10-57.002-10s-0.996-4.004,2.002-10c10-15.996,112.998-12.002,145.996,5
		c39.004,20.996,86.006,87.002,104.004,147.998c32.002,108.003,14.004,281.001-42.002,391.001
		c-105.996,212.002-367.002,375-703.994,441.001C4467.998,3261,4192.998,3272.998,4120,3263.999z"/>
	<path fill="#DCDDDE" d="M1152.998,3206c-15-18.999-21.997-22.002-40-13.003c-31.997,14.004-52.998,2.002-52.998-30.996
		c0-35,22.998-57.002,70-67.002c41.001-8.999,50-18.999,50-57.998c0-19.004,3.999-27.002,12.998-24.004
		c8.003,2.002,11.001,20,9.004,53.003c-3.003,36.997,0.996,53.999,11.997,62.998C1245,3155,1227.002,3230,1190,3230
		C1180,3230,1162.998,3218.999,1152.998,3206z"/>
	<path fill="#DCDDDE" d="M5945.996,3087.998C6330,2720,6522.001,2239.004,6480.996,1745c-5.996-72.998-20-169.004-30.996-212.002
		c-42.998-168.994-130-290-235-327.002c-87.998-30.996-100-38.994-100-70.996c0-25,5-30.996,37.998-40c21.006-5.996,39.004-15,40-20
		c2.998-25-107.002-74.004-225.996-99.004C5940,970,5900,937.998,5900,920.996c0-3.994,10.996-25,25-45s25-40,25-45
		c0-17.998-60.996-33.994-157.998-40.996c-106.006-7.998-116.006-12.002-136.006-52.002c-18.994-37.002-75.996-50-225.996-50.996
		c-167.002,0-250.996,17.002-375,77.002c-107.998,52.998-175,112.998-210,188.994c-30,62.998-30.996,97.998-5,156.006
		c22.998,50.996,20.996,60.996-7.998,30.996C4810,1115.996,4790,1049.004,4790,997.998c0.996-45,39.004-135.996,80.996-187.002
		c51.006-63.994,161.006-140,253.008-172.998c211.992-77.998,480-77.002,696.992,2.002c386.006,140.996,637.002,482.998,700,957.002
		c17.002,127.998,6.006,450.996-18.994,572.998c-44.003,207.002-132.998,427.998-239.003,590c-105,158.999-348.994,420-392.998,420
		C5855,3180,5874.003,3156,5945.996,3087.998z"/>
	<path fill="#DCDDDE" d="M1236.001,2943.999l-38.003-26.001l-21.997,21.001c-43.999,41.001-90,18.003-90-43.999
		c0-42.998,26.997-72.998,67.998-77.002L1185,2815l-1.001-62.002c-1.001-92.998,21.001-80,28.003,17.002
		c2.998,31.001,5.996,35,41.997,42.002c51.001,10.996,63.999,21.997,72.002,62.998c6.001,36.001-7.002,68.999-35,83.999
		C1277.998,2967.001,1263.999,2962.998,1236.001,2943.999z"/>
	<path fill="#DCDDDE" d="M3592.002,2728.999C3385,2712.002,3142.998,2650,2975,2571.001c-91.001-43.003-245-138.003-245-151.997
		c0-16.006,17.002-9.004,110,45c158.999,93.994,355,165.996,555,201.997c135,25,447.998,30,554.004,10
		c98.994-18.003,211.992-68.999,260-117.002c45-43.999,73.994-109.995,65-146.001c-7.002-25.996-7.002-25.996-15-5
		c-11.006,29.004-55,39.004-88.008,21.006c-20-11.006-26.992-24.004-28.994-53.008c-5-60,5-85,42.002-102.998
		c95-45,196.992,62.002,166.992,175C4310,2600,4145,2702.002,3895,2730C3794.003,2741.001,3740,2741.001,3592.002,2728.999z"/>
	<path fill="#DCDDDE" d="M1040,2641.001C978.999,2580,1020,2470,1103.999,2470c22.002,0,26.001-4.004,26.001-30.996
		c0-17.002-5-39.004-11.001-51.006c-8.999-17.002-7.998-18.994,7.002-15.996c11.997,2.002,22.998,18.994,31.001,47.998l12.998,45h60
		c51.001,0,62.998,4.004,86.001,26.001c31.001,31.001,35,86.001,10,123.999c-20,31.001-53.003,32.002-108.003,3.999l-40-21.001
		l-31.997,30C1097.998,2673.999,1075,2677.002,1040,2641.001z"/>
	<path fill="#DCDDDE" d="M901.001,2324.004c-38.999-32.002-52.002-80-38.999-134.004c10.996-40.996,55.996-90,83.999-90
		c18.999,0,17.998-19.004-6.001-57.998c-33.999-56.006-18.999-87.998,17.002-37.002c51.997,74.004,42.998,69.004,110,52.002
		c115-29.004,190,12.998,180,100c-9.004,80-54.004,100.996-147.002,67.998c-22.998-7.998-43.999-15-45-15s-7.998,20-13.999,44.004
		C1028.999,2300.996,982.998,2350,950,2350C940,2350,917.998,2337.998,901.001,2324.004z"/>
	<path fill="#DCDDDE" d="M3167.002,2295.996c-43.003-12.998-105-36.992-138.003-53.994l-60-31.006l-11.001,25
		C2943.999,2267.002,2911.001,2275,2865,2260c-41.001-14.004-177.998-102.998-197.002-127.998
		C2657.998,2119.004,2640,2115,2595,2115c-75,0-77.002-0.996-445-290.996c-396.001-311.006-668.999-515-872.998-648.008
		c-166.001-108.994-199.004-136.992-183.003-152.998c13.999-13.994,112.002,47.002,563.999,350
		c667.002,447.002,807.002,530,1023.003,605c286.001,100,602.998,119.004,828.003,50c170-52.002,272.998-132.998,337.998-263.994
		c62.002-127.002,55.996-221.006-19.004-294.004c-62.002-59.004-28.994-80,35-20.996c94.004,85.996,91.006,248.994-7.002,425
		c-40,71.992-125,168.994-180.996,206.992c-40.996,28.008-42.002,32.002-15,59.004c25,25,25,45,0.996,69.004
		c-28.994,28.994-85,40.996-192.998,40.996c-80,0-97.998,2.998-97.998,15c0,7.998-8.999,24.004-20,35
		C3322.998,2327.002,3267.002,2325,3167.002,2295.996z"/>
	<path fill="#DCDDDE" d="M692.998,1990c-17.998-10-38.999-32.998-47.998-49.004c-33.999-66.992-6.001-172.998,50-186.992
		c32.002-8.008,32.002-14.004-5-49.004c-16.001-15.996-30-32.002-30-37.002c0-17.002,37.998-7.002,60,17.002
		c28.999,30.996,47.998,30.996,97.002,2.998c55-32.998,150.996-32.002,186.997,1.006c32.002,30,43.003,80.996,26.001,121.992
		c-17.002,40-37.002,49.004-112.998,49.004h-65l-11.001,44.004C830,1950,773.999,2010,742.002,2010
		C732.998,2010,711.001,2000.996,692.998,1990z"/>
	<path fill="#DCDDDE" d="M4692.998,1685c-80-22.002-125.996-49.004-175.996-105c-92.002-102.998-131.006-230-125-405
		c10.996-270,153.994-482.002,412.998-612.998c160-80,474.004-139.004,700-130c134.004,5,94.004,22.998-55,23.994
		c-575,6.006-897.998,209.004-917.998,576.006l-5,97.002l35.996,35.996c41.006,40.996,49.004,42.002,76.006,12.998
		c16.992-17.002,22.998-18.994,35.996-7.998c20.996,17.002,19.004,72.998-4.004,100.996c-23.994,30-122.998,39.004-171.992,15
		c-40-20-39.004-20-39.004,5c0,32.002,17.998,59.004,82.002,125c50,51.006,62.002,70,68.994,110
		c12.002,65,32.002,92.002,87.002,117.002c35,15,67.998,21.006,129.004,21.006c72.002,0.996,82.998,2.998,82.998,18.994
		c0,15-10,17.002-82.002,16.006C4782.001,1699.004,4720.996,1692.002,4692.998,1685z"/>
	<path fill="#DCDDDE" d="M2312.998,1519.004c-111.997-19.004-228.999-74.004-515-243.008C1363.999,1020,985,817.998,687.998,684.004
		C568.999,630,190,482.998,81.001,449.004c-65-21.006-93.003-40-78.999-55C10,387.002,381.001,517.002,550,587.002
		c302.002,125,752.002,355.996,1190,612.998c367.002,214.004,472.002,260,602.002,260c43.999,0,83.999-5.996,100-14.004
		c23.999-12.998,30-12.998,42.998,0c17.998,18.008,17.998,20,5,44.004c-10,19.004-68.999,40.996-105,39.004
		C2373.999,1527.998,2342.002,1524.004,2312.998,1519.004z"/>
</g>
</svg>
